<svg width="433" height="515" viewBox="0 0 433 515" fill="none" xmlns="http://www.w3.org/2000/svg">
<path d="M367.996 211.947L208.14 190.287L205.947 203.339L365.803 224.999L367.996 211.947Z" fill="#E0E0E0"/>
<path d="M277.109 266.367L197.185 255.537L194.992 268.589L274.916 279.419L277.109 266.367Z" fill="#6C63FF"/>
<g opacity="0.5">
<path opacity="0.5" d="M382.711 0H37.9564V427.776H382.711V0Z" fill="url(#paint0_linear)"/>
</g>
<path d="M378.325 3.14946H42.3424V421.469H378.325V3.14946Z" fill="white"/>
<g opacity="0.5">
<path opacity="0.5" d="M87.212 98.8612C87.213 90.8685 89.518 83.0122 93.9029 76.0569C98.2877 69.1016 104.603 63.2841 112.234 59.1708C119.865 55.0575 128.552 52.7884 137.449 52.5844C146.346 52.3804 155.151 54.2484 163.006 58.0066C170.861 61.7648 177.498 67.2851 182.273 74.0304C187.047 80.7757 189.796 88.5161 190.251 96.4983C190.706 104.48 188.852 112.433 184.87 119.581C180.888 126.729 174.913 132.829 167.527 137.288V137.491C165.843 138.942 163.855 140.079 161.679 140.836L161.609 140.633C159.198 142.493 149.034 145.47 137.355 145.439H137.103C129.706 145.439 121.682 144.267 114.616 140.836C114.616 140.836 114.555 140.711 114.459 140.484C112.669 139.729 111.026 138.718 109.595 137.491L109.516 136.968C102.637 132.716 97.0117 127.026 93.1261 120.387C89.2404 113.748 87.2108 106.361 87.212 98.8612Z" fill="url(#paint1_linear)"/>
</g>
<path d="M138.756 143.767C166.373 143.767 188.76 123.662 188.76 98.8611C188.76 74.0605 166.373 53.9555 138.756 53.9555C111.14 53.9555 88.7523 74.0605 88.7523 98.8611C88.7523 123.662 111.14 143.767 138.756 143.767Z" fill="#F5F5F5"/>
<path d="M119.141 115.968C119.141 115.968 107.228 116.836 110.378 136.374C112.012 137.781 113.94 138.883 116.052 139.617L122.753 119.243L119.141 115.968Z" fill="#BE7C5E"/>
<path d="M157.806 115.968C157.806 115.968 169.72 116.836 166.569 136.374C164.935 137.781 163.007 138.883 160.895 139.617L154.221 119.18L157.806 115.968Z" fill="#BE7C5E"/>
<path d="M119.655 84.0124C119.655 84.0124 118.741 86.4117 117.435 89.186C114.598 95.2505 117.836 118.555 124.624 121.04C132.238 123.83 142.255 125.612 152.654 122.205C161.696 119.243 164.481 92.7184 158.093 86.2554C157.345 85.4738 156.562 84.747 155.744 84.0124H119.655Z" fill="#333333"/>
<path d="M138.791 102.534C151.033 102.534 160.956 93.6225 160.956 82.6292C160.956 71.6359 151.033 62.7241 138.791 62.7241C126.55 62.7241 116.626 71.6359 116.626 82.6292C116.626 93.6225 126.55 102.534 138.791 102.534Z" fill="#333333"/>
<path opacity="0.1" d="M157.58 115.968H118.915L115.303 129.856C115.303 129.856 113.18 136.288 115.817 139.117C118.454 141.946 143.082 148.378 161.183 139.578C162.76 135.874 162.94 131.808 161.696 128.004C159.634 121.525 161.183 127.543 161.183 127.543L157.58 115.968Z" fill="black"/>
<path opacity="0.1" d="M158.093 115.968H119.411L115.799 129.856C115.799 129.856 113.676 136.288 116.313 139.117C118.95 141.946 143.578 148.378 161.679 139.578C163.256 135.874 163.436 131.808 162.192 128.004C160.13 121.525 161.679 127.543 161.679 127.543L158.093 115.968Z" fill="black"/>
<path d="M157.806 115.968H119.141L115.53 129.856C115.53 129.856 113.406 136.288 116.043 139.117C118.68 141.946 143.308 148.378 161.409 139.578C162.986 135.874 163.166 131.808 161.922 128.004C159.86 121.525 161.409 127.543 161.409 127.543L157.806 115.968Z" fill="#3AD29F"/>
<path opacity="0.1" d="M131.003 104.441H146.467V117.242C146.467 118.637 145.85 119.975 144.751 120.961C143.653 121.948 142.163 122.502 140.61 122.502H136.851C135.297 122.502 133.808 121.948 132.709 120.961C131.611 119.975 130.994 118.637 130.994 117.242V104.441H131.003Z" fill="black"/>
<path d="M131.003 103.925H146.467V116.726C146.467 118.121 145.85 119.459 144.751 120.446C143.653 121.432 142.163 121.986 140.61 121.986H136.851C135.297 121.986 133.808 121.432 132.709 120.446C131.611 119.459 130.994 118.121 130.994 116.726V103.925H131.003Z" fill="#BE7C5E"/>
<path opacity="0.1" d="M131.029 105.895C136.018 107.554 141.504 107.554 146.493 105.895V104.191H131.029V105.895Z" fill="black"/>
<path d="M138.791 106.856C151.033 106.856 160.956 97.9441 160.956 86.9509C160.956 75.9576 151.033 67.0458 138.791 67.0458C126.55 67.0458 116.626 75.9576 116.626 86.9509C116.626 97.9441 126.55 106.856 138.791 106.856Z" fill="#BE7C5E"/>
<path d="M117.592 79.3937H159.868C159.868 79.3937 156.257 64.0604 140.279 65.0451C124.302 66.0298 117.592 79.3937 117.592 79.3937Z" fill="#333333"/>
<path d="M117.087 89.5768C118.226 89.5768 119.15 88.0233 119.15 86.1069C119.15 84.1905 118.226 82.637 117.087 82.637C115.948 82.637 115.025 84.1905 115.025 86.1069C115.025 88.0233 115.948 89.5768 117.087 89.5768Z" fill="#BE7C5E"/>
<path d="M160.391 89.5768C161.53 89.5768 162.453 88.0233 162.453 86.1069C162.453 84.1905 161.53 82.637 160.391 82.637C159.252 82.637 158.328 84.1905 158.328 86.1069C158.328 88.0233 159.252 89.5768 160.391 89.5768Z" fill="#BE7C5E"/>
<path opacity="0.1" d="M117.592 79.9017H159.868C159.868 79.9017 156.257 64.5684 140.279 65.5531C124.302 66.5378 117.592 79.9017 117.592 79.9017Z" fill="black"/>
<path d="M329.635 184.538H87.1424V197.738H329.635V184.538Z" fill="#E0E0E0"/>
<path d="M329.635 217.534H87.1424V230.733H329.635V217.534Z" fill="#E0E0E0"/>
<path d="M329.644 78.9561H204.721V92.1558H329.644V78.9561Z" fill="#E0E0E0"/>
<path d="M318.618 111.951H215.738V125.151H318.618V111.951Z" fill="#24292E"/>
<path d="M300.247 250.529H87.1424V263.729H300.247V250.529Z" fill="#E0E0E0"/>
<path d="M270.85 283.524H87.1424V296.724H270.85V283.524Z" fill="#E0E0E0"/>
<path d="M248.807 316.527H87.1424V329.727H248.807V316.527Z" fill="#E0E0E0"/>
<path d="M292.894 349.523H87.1424V362.723H292.894V349.523Z" fill="#E0E0E0"/>
<path d="M167.97 382.518H87.1424V395.718H167.97V382.518Z" fill="#24292E"/>
<g opacity="0.5">
<path opacity="0.5" d="M359.458 455.214C400.018 455.214 432.898 425.687 432.898 389.263C432.898 352.839 400.018 323.311 359.458 323.311C318.899 323.311 286.019 352.839 286.019 389.263C286.019 425.687 318.899 455.214 359.458 455.214Z" fill="url(#paint2_linear)"/>
</g>
<path d="M374 448C399.405 448 420 428.972 420 405.5C420 382.028 399.405 363 374 363C348.595 363 328 382.028 328 405.5C328 428.972 348.595 448 374 448Z" fill="#69F0AE"/>
<path d="M349.25 399.198L369.047 415.855L397.095 378L407 385.572L369.047 431L341 402.23L349.25 399.198Z" fill="white"/>
<path d="M10.0781 493.987H25.0078V499.636H3.04688V465.511H10.0781V493.987ZM43.3125 499.636C43 499.026 42.7734 498.269 42.6328 497.362C40.9922 499.19 38.8594 500.104 36.2344 500.104C33.75 500.104 31.6875 499.386 30.0469 497.948C28.4219 496.511 27.6094 494.698 27.6094 492.511C27.6094 489.823 28.6016 487.761 30.5859 486.323C32.5859 484.886 35.4688 484.159 39.2344 484.144H42.3516V482.69C42.3516 481.519 42.0469 480.581 41.4375 479.878C40.8438 479.175 39.8984 478.823 38.6016 478.823C37.4609 478.823 36.5625 479.097 35.9062 479.644C35.2656 480.19 34.9453 480.94 34.9453 481.894H28.1719C28.1719 480.425 28.625 479.065 29.5312 477.815C30.4375 476.565 31.7188 475.589 33.375 474.886C35.0312 474.167 36.8906 473.808 38.9531 473.808C42.0781 473.808 44.5547 474.597 46.3828 476.175C48.2266 477.737 49.1484 479.94 49.1484 482.784V493.776C49.1641 496.183 49.5 498.003 50.1562 499.237V499.636H43.3125ZM37.7109 494.925C38.7109 494.925 39.6328 494.706 40.4766 494.269C41.3203 493.815 41.9453 493.214 42.3516 492.464V488.104H39.8203C36.4297 488.104 34.625 489.276 34.4062 491.62L34.3828 492.019C34.3828 492.862 34.6797 493.558 35.2734 494.104C35.8672 494.651 36.6797 494.925 37.7109 494.925ZM68.6016 480.628C67.6797 480.503 66.8672 480.44 66.1641 480.44C63.6016 480.44 61.9219 481.308 61.125 483.042V499.636H54.3516V474.276H60.75L60.9375 477.3C62.2969 474.972 64.1797 473.808 66.5859 473.808C67.3359 473.808 68.0391 473.909 68.6953 474.112L68.6016 480.628ZM85.875 499.636C85.5625 499.026 85.3359 498.269 85.1953 497.362C83.5547 499.19 81.4219 500.104 78.7969 500.104C76.3125 500.104 74.25 499.386 72.6094 497.948C70.9844 496.511 70.1719 494.698 70.1719 492.511C70.1719 489.823 71.1641 487.761 73.1484 486.323C75.1484 484.886 78.0312 484.159 81.7969 484.144H84.9141V482.69C84.9141 481.519 84.6094 480.581 84 479.878C83.4062 479.175 82.4609 478.823 81.1641 478.823C80.0234 478.823 79.125 479.097 78.4688 479.644C77.8281 480.19 77.5078 480.94 77.5078 481.894H70.7344C70.7344 480.425 71.1875 479.065 72.0938 477.815C73 476.565 74.2812 475.589 75.9375 474.886C77.5938 474.167 79.4531 473.808 81.5156 473.808C84.6406 473.808 87.1172 474.597 88.9453 476.175C90.7891 477.737 91.7109 479.94 91.7109 482.784V493.776C91.7266 496.183 92.0625 498.003 92.7188 499.237V499.636H85.875ZM80.2734 494.925C81.2734 494.925 82.1953 494.706 83.0391 494.269C83.8828 493.815 84.5078 493.214 84.9141 492.464V488.104H82.3828C78.9922 488.104 77.1875 489.276 76.9688 491.62L76.9453 492.019C76.9453 492.862 77.2422 493.558 77.8359 494.104C78.4297 494.651 79.2422 494.925 80.2734 494.925ZM106.031 491.362L110.742 474.276H117.82L109.266 499.636H102.797L94.2422 474.276H101.32L106.031 491.362ZM132.164 500.104C128.445 500.104 125.414 498.964 123.07 496.683C120.742 494.401 119.578 491.362 119.578 487.565V486.909C119.578 484.362 120.07 482.089 121.055 480.089C122.039 478.073 123.43 476.526 125.227 475.448C127.039 474.354 129.102 473.808 131.414 473.808C134.883 473.808 137.609 474.901 139.594 477.089C141.594 479.276 142.594 482.378 142.594 486.394V489.159H126.445C126.664 490.815 127.32 492.144 128.414 493.144C129.523 494.144 130.922 494.644 132.609 494.644C135.219 494.644 137.258 493.698 138.727 491.808L142.055 495.534C141.039 496.972 139.664 498.097 137.93 498.909C136.195 499.706 134.273 500.104 132.164 500.104ZM131.391 479.292C130.047 479.292 128.953 479.745 128.109 480.651C127.281 481.558 126.75 482.854 126.516 484.542H135.938V484.003C135.906 482.503 135.5 481.347 134.719 480.534C133.938 479.706 132.828 479.292 131.391 479.292ZM153.609 499.636H146.812V463.636H153.609V499.636ZM188.883 490.8H177.492L174.75 499.636H170.414L181.43 465.511H185.062L195.891 499.636H191.578L188.883 490.8ZM178.664 487.026H187.734L183.234 472.214L178.664 487.026ZM222.82 487.237C222.82 489.05 222.602 490.745 222.164 492.323C221.727 493.886 221.086 495.245 220.242 496.401C219.398 497.558 218.352 498.464 217.102 499.12C215.867 499.776 214.453 500.104 212.859 500.104C211.312 500.104 209.945 499.854 208.758 499.354C207.586 498.854 206.578 498.136 205.734 497.198V509.386H201.398V474.276H205.359L205.57 477.042C206.414 475.995 207.43 475.198 208.617 474.651C209.82 474.089 211.211 473.808 212.789 473.808C214.414 473.808 215.852 474.128 217.102 474.769C218.352 475.409 219.398 476.3 220.242 477.44C221.086 478.581 221.727 479.948 222.164 481.542C222.602 483.12 222.82 484.854 222.82 486.745V487.237ZM218.484 486.745C218.484 485.511 218.344 484.339 218.062 483.229C217.797 482.104 217.375 481.12 216.797 480.276C216.234 479.417 215.516 478.737 214.641 478.237C213.766 477.737 212.719 477.487 211.5 477.487C210.109 477.487 208.938 477.815 207.984 478.472C207.047 479.112 206.297 479.94 205.734 480.956V493.167C206.297 494.167 207.047 494.987 207.984 495.628C208.922 496.253 210.109 496.565 211.547 496.565C212.75 496.565 213.789 496.315 214.664 495.815C215.539 495.3 216.258 494.612 216.82 493.753C217.383 492.894 217.797 491.901 218.062 490.776C218.344 489.651 218.484 488.472 218.484 487.237V486.745ZM251.648 487.237C251.648 489.05 251.43 490.745 250.992 492.323C250.555 493.886 249.914 495.245 249.07 496.401C248.227 497.558 247.18 498.464 245.93 499.12C244.695 499.776 243.281 500.104 241.688 500.104C240.141 500.104 238.773 499.854 237.586 499.354C236.414 498.854 235.406 498.136 234.562 497.198V509.386H230.227V474.276H234.188L234.398 477.042C235.242 475.995 236.258 475.198 237.445 474.651C238.648 474.089 240.039 473.808 241.617 473.808C243.242 473.808 244.68 474.128 245.93 474.769C247.18 475.409 248.227 476.3 249.07 477.44C249.914 478.581 250.555 479.948 250.992 481.542C251.43 483.12 251.648 484.854 251.648 486.745V487.237ZM247.312 486.745C247.312 485.511 247.172 484.339 246.891 483.229C246.625 482.104 246.203 481.12 245.625 480.276C245.062 479.417 244.344 478.737 243.469 478.237C242.594 477.737 241.547 477.487 240.328 477.487C238.938 477.487 237.766 477.815 236.812 478.472C235.875 479.112 235.125 479.94 234.562 480.956V493.167C235.125 494.167 235.875 494.987 236.812 495.628C237.75 496.253 238.938 496.565 240.375 496.565C241.578 496.565 242.617 496.315 243.492 495.815C244.367 495.3 245.086 494.612 245.648 493.753C246.211 492.894 246.625 491.901 246.891 490.776C247.172 489.651 247.312 488.472 247.312 487.237V486.745ZM259.758 463.636H272.719V495.886H280.992V499.636H259.758V495.886H268.383V467.409H259.758V463.636ZM288.586 474.276H301.547V495.886H309.82V499.636H288.586V495.886H297.211V478.05H288.586V474.276ZM296.648 467.62C296.648 466.901 296.859 466.3 297.281 465.815C297.719 465.315 298.375 465.065 299.25 465.065C300.109 465.065 300.758 465.315 301.195 465.815C301.633 466.3 301.852 466.901 301.852 467.62C301.852 468.323 301.633 468.909 301.195 469.378C300.758 469.847 300.109 470.081 299.25 470.081C298.375 470.081 297.719 469.847 297.281 469.378C296.859 468.909 296.648 468.323 296.648 467.62ZM327.539 496.589C328.32 496.589 329.078 496.464 329.812 496.214C330.562 495.964 331.227 495.62 331.805 495.183C332.383 494.729 332.844 494.206 333.188 493.612C333.547 493.003 333.734 492.347 333.75 491.644H337.852C337.836 492.769 337.539 493.847 336.961 494.878C336.398 495.894 335.641 496.792 334.688 497.573C333.734 498.339 332.641 498.956 331.406 499.425C330.172 499.878 328.883 500.104 327.539 500.104C325.617 500.104 323.938 499.761 322.5 499.073C321.062 498.386 319.859 497.464 318.891 496.308C317.938 495.136 317.219 493.792 316.734 492.276C316.25 490.745 316.008 489.136 316.008 487.448V486.464C316.008 484.792 316.25 483.19 316.734 481.659C317.219 480.128 317.938 478.784 318.891 477.628C319.859 476.456 321.062 475.526 322.5 474.839C323.938 474.151 325.617 473.808 327.539 473.808C329.039 473.808 330.414 474.05 331.664 474.534C332.93 475.003 334.016 475.651 334.922 476.479C335.844 477.292 336.562 478.261 337.078 479.386C337.594 480.511 337.852 481.714 337.852 482.995H333.75C333.734 482.229 333.562 481.511 333.234 480.839C332.922 480.151 332.492 479.55 331.945 479.034C331.398 478.519 330.742 478.112 329.977 477.815C329.227 477.519 328.414 477.37 327.539 477.37C326.195 477.37 325.062 477.644 324.141 478.19C323.234 478.722 322.5 479.425 321.938 480.3C321.375 481.159 320.969 482.128 320.719 483.206C320.484 484.284 320.367 485.37 320.367 486.464V487.448C320.367 488.558 320.484 489.659 320.719 490.753C320.969 491.831 321.367 492.808 321.914 493.683C322.477 494.542 323.211 495.245 324.117 495.792C325.039 496.323 326.18 496.589 327.539 496.589ZM362.227 499.636C362.055 499.308 361.914 498.901 361.805 498.417C361.711 497.917 361.641 497.401 361.594 496.87C361.156 497.308 360.664 497.722 360.117 498.112C359.586 498.503 358.992 498.847 358.336 499.144C357.695 499.44 357.008 499.675 356.273 499.847C355.539 500.019 354.758 500.104 353.93 500.104C352.586 500.104 351.367 499.909 350.273 499.519C349.195 499.128 348.273 498.604 347.508 497.948C346.758 497.276 346.172 496.487 345.75 495.581C345.344 494.659 345.141 493.667 345.141 492.604C345.141 491.214 345.414 489.995 345.961 488.948C346.523 487.901 347.312 487.034 348.328 486.347C349.344 485.644 350.562 485.12 351.984 484.776C353.422 484.433 355.023 484.261 356.789 484.261H361.523V482.269C361.523 481.503 361.383 480.815 361.102 480.206C360.82 479.597 360.422 479.081 359.906 478.659C359.391 478.222 358.758 477.886 358.008 477.651C357.273 477.417 356.445 477.3 355.523 477.3C354.664 477.3 353.891 477.409 353.203 477.628C352.531 477.847 351.961 478.136 351.492 478.495C351.023 478.854 350.656 479.284 350.391 479.784C350.141 480.269 350.016 480.776 350.016 481.308H345.656C345.672 480.386 345.906 479.479 346.359 478.589C346.828 477.698 347.492 476.901 348.352 476.198C349.227 475.479 350.281 474.901 351.516 474.464C352.766 474.026 354.18 473.808 355.758 473.808C357.195 473.808 358.531 473.987 359.766 474.347C361 474.69 362.062 475.222 362.953 475.94C363.859 476.644 364.57 477.526 365.086 478.589C365.602 479.651 365.859 480.894 365.859 482.315V494.104C365.859 494.948 365.938 495.847 366.094 496.8C366.25 497.737 366.469 498.558 366.75 499.261V499.636H362.227ZM354.562 496.331C355.406 496.331 356.195 496.222 356.93 496.003C357.664 495.784 358.328 495.495 358.922 495.136C359.531 494.776 360.055 494.37 360.492 493.917C360.93 493.448 361.273 492.964 361.523 492.464V487.331H357.492C354.961 487.331 352.992 487.706 351.586 488.456C350.18 489.206 349.477 490.386 349.477 491.995C349.477 492.62 349.578 493.198 349.781 493.729C350 494.261 350.32 494.722 350.742 495.112C351.164 495.487 351.695 495.784 352.336 496.003C352.977 496.222 353.719 496.331 354.562 496.331ZM378.281 474.276L378.586 478.026C379.508 476.714 380.641 475.69 381.984 474.956C383.328 474.206 384.828 473.823 386.484 473.808C387.812 473.808 389.016 473.995 390.094 474.37C391.188 474.745 392.117 475.331 392.883 476.128C393.648 476.925 394.234 477.94 394.641 479.175C395.062 480.394 395.273 481.847 395.273 483.534V499.636H390.938V483.628C390.938 482.503 390.812 481.55 390.562 480.769C390.312 479.987 389.938 479.354 389.438 478.87C388.953 478.386 388.352 478.034 387.633 477.815C386.93 477.597 386.117 477.487 385.195 477.487C383.742 477.487 382.461 477.854 381.352 478.589C380.258 479.308 379.383 480.261 378.727 481.448V499.636H374.391V474.276H378.281ZM413.484 468.136V474.276H423.141V477.628H413.484V491.409C413.484 492.394 413.609 493.206 413.859 493.847C414.109 494.487 414.453 495.003 414.891 495.394C415.328 495.769 415.828 496.034 416.391 496.19C416.969 496.347 417.578 496.425 418.219 496.425C418.688 496.425 419.172 496.401 419.672 496.354C420.172 496.292 420.656 496.222 421.125 496.144C421.609 496.065 422.055 495.987 422.461 495.909C422.883 495.815 423.227 495.737 423.492 495.675L424.102 498.745C423.742 498.964 423.305 499.159 422.789 499.331C422.273 499.487 421.711 499.62 421.102 499.729C420.492 499.854 419.844 499.948 419.156 500.011C418.484 500.073 417.812 500.104 417.141 500.104C416.016 500.104 414.961 499.948 413.977 499.636C413.008 499.308 412.164 498.8 411.445 498.112C410.727 497.409 410.156 496.511 409.734 495.417C409.328 494.308 409.125 492.972 409.125 491.409V477.628H402.469V474.276H409.125V468.136H413.484Z" fill="black"/>
<defs>
<linearGradient id="paint0_linear" x1="165765" y1="304936" x2="165765" y2="70784" gradientUnits="userSpaceOnUse">
<stop stop-color="#808080" stop-opacity="0.25"/>
<stop offset="0.54" stop-color="#808080" stop-opacity="0.12"/>
<stop offset="1" stop-color="#808080" stop-opacity="0.1"/>
</linearGradient>
<linearGradient id="paint1_linear" x1="52171.4" y1="39763.8" x2="52171.4" y2="28726.2" gradientUnits="userSpaceOnUse">
<stop stop-color="#808080" stop-opacity="0.25"/>
<stop offset="0.54" stop-color="#808080" stop-opacity="0.12"/>
<stop offset="1" stop-color="#808080" stop-opacity="0.1"/>
</linearGradient>
<linearGradient id="paint2_linear" x1="96061.7" y1="98979.1" x2="96061.7" y2="76717.8" gradientUnits="userSpaceOnUse">
<stop stop-color="#808080" stop-opacity="0.25"/>
<stop offset="0.54" stop-color="#808080" stop-opacity="0.12"/>
<stop offset="1" stop-color="#808080" stop-opacity="0.1"/>
</linearGradient>
</defs>
</svg>
